<?xml version="1.0" encoding="utf-8"?>
<!-- Generator: Adobe Illustrator 15.0.1, SVG Export Plug-In . SVG Version: 6.00 Build 0)  -->
<!DOCTYPE svg PUBLIC "-//W3C//DTD SVG 1.1//EN" "http://www.w3.org/Graphics/SVG/1.1/DTD/svg11.dtd">
<svg version="1.1" xmlns="http://www.w3.org/2000/svg" xmlns:xlink="http://www.w3.org/1999/xlink" x="0px" y="0px" width="200px"
	 height="232px" viewBox="0 0 200 232" enable-background="new 0 0 200 232" xml:space="preserve">
<path fill="#55A113" d="M111.931,192.987c-3.598-1.515-6.818-2.272-9.659-2.272h-0.568c-3.409,0.189-6.627,1.138-9.471,3.029
	c-2.84,1.895-4.921,4.167-6.44,7.196c-1.701,3.034-2.458,6.252-2.458,9.476c0,5.867,2.08,10.602,6.44,14.2L111.931,192.987z
	 M114.771,195.073l-22.159,31.817c3.219,1.895,6.438,2.841,9.659,3.029h0.38c3.407,0,6.628-0.946,9.656-2.649
	c2.844-1.895,5.305-4.169,7.01-7.198c1.706-3.032,2.649-6.253,2.649-9.656C122.158,204.541,119.695,199.426,114.771,195.073
	 M154.924,195.073l-22.16,31.817c3.22,1.895,6.44,2.841,9.661,3.029h0.377c3.409,0,6.628-0.946,9.662-2.649
	c2.84-1.895,5.301-4.169,7.007-7.198c1.703-3.032,2.646-6.253,2.646-9.656C162.117,204.541,159.846,199.426,154.924,195.073
	 M151.893,192.987c-3.409-1.515-6.63-2.272-9.468-2.272h-0.571c-3.598,0.189-6.627,1.138-9.468,3.029
	c-2.843,1.895-4.737,4.167-6.44,7.196c-1.515,3.034-2.272,6.252-2.272,9.476c0,5.867,2.083,10.602,6.25,14.2L151.893,192.987z
	 M58.9,192.421H40.529v26.325L58.9,192.421z M60.038,228.405h15.718v-22.35L60.038,228.405z M62.879,192.421l-25.002,35.984h18.372
	l24.999-35.984H62.879z"/>
<path display="none" fill="#FEF8CA" d="M41.286,182.951c-1.135,0-2.083-0.38-2.841-1.138c-0.757-0.76-1.137-1.703-1.137-2.841
	v-25.947c-5.112-6.247-9.659-12.877-13.065-20.267H3.977c-1.138,0-2.086-0.377-2.844-1.135c-0.754-0.757-1.134-1.703-1.134-2.651
	v-13.828c0-1.132,0.38-2.081,1.134-2.838c0.758-0.755,1.706-1.138,2.655-1.138h14.391v-3.598
	c-0.188-7.196,2.084-14.205,5.873-20.075c3.789-5.872,8.901-10.607,14.963-14.017l-9.662-32.195c-0.188-0.76-0.188-1.517,0-2.083
	V39.01v-0.757l0.191-20.075c-5.681-5.492-7.387-12.313-9.09-19.887h9.85c1.135,0,1.893,0.377,2.649,0.946
	c0.758,0.76,1.135,1.517,1.326,2.46c0.188,3.035,0.568,6.064,1.323,8.902c0.191,0.76,0.571,2.086,1.331,2.463l28.405,18.184
	c0.76-0.949,1.895-1.704,3.219-1.704h3.22c9.282-1.705,18.752-2.843,28.22-2.843c9.662,0,19.13,1.138,28.411,2.843h3.029
	c1.328,0,2.463,0.755,3.221,1.704l28.599-18.184c0.569-0.377,0.946-1.703,1.135-2.463c0.758-2.838,0.949-5.867,1.329-8.711
	c0-1.135,0.565-1.892,1.323-2.651c0.568-0.569,1.515-0.946,2.466-0.946h5.107c1.328,0,2.276,0.377,3.034,1.326
	c0.757,0.945,1.135,2.08,0.757,3.218c-1.14,5.872-3.6,11.176-7.952,15.343l0.377,20.075v0.757c-0.191,0.191-0.191,0.38-0.191,0.38
	c0,0.758,0,1.323-0.186,1.895l-9.474,32.195c5.873,3.409,11.179,8.145,14.774,14.017c3.789,6.061,5.87,12.879,5.87,20.075v3.598
	h14.396c1.135,0,2.08,0.383,2.838,1.138c0.757,0.757,1.138,1.706,1.138,2.838v13.828c0,1.137-0.381,1.895-1.138,2.651
	c-0.758,0.758-1.703,1.135-2.838,1.135h-20.455c-3.407,7.39-7.956,14.02-13.068,20.075v26.139c0,1.138-0.38,2.081-1.138,2.841
	c-0.76,0.758-1.705,1.138-2.651,1.138H41.286"/>
<path fill="#912B46" d="M71.969,139.957l0.378,0.191v39.204c-0.191-0.19-0.378-0.19-0.378-0.38V139.957z M99.997,180.677
	l0.191-0.758l2.652-15.908h-5.682L99.997,180.677z M79.733,180.299l6.63-8.145l6.438-8.144h-6.438L79.733,180.299z M107.384,164.011
	l6.63,8.144l6.441,8.145l-6.441-16.288H107.384z M176.894,116.662c-0.19,1.517-0.57,3.029-1.137,4.546h20.267v1.515H175.38
	c-0.381,1.515-0.946,3.032-1.704,4.735h22.348v1.517h-22.921c-1.323,2.841-2.838,5.867-4.544,9.088
	c-2.652,4.358-6.059,8.713-9.848,13.448v27.462h-6.25v-20.644c-6.63,6.821-14.771,13.632-24.241,20.642v0.005
	c-0.191,0-0.38,0.187-0.571,0.377l0.191-39.204l0.377-0.191l0,0l13.637-8.523v27.087c5.872-3.029,11.745-7.77,16.857-13.26v-16.286
	h-16.669v-1.517h16.669v-4.735h-16.669v-1.515h16.669v-4.546h-16.669v-1.516h16.669v-2.271h-8.146V96.396l-15.906,7.39v9.278
	h-13.637l5.684-6.627h-14.774v10.226l1.326-1.516v-5.872h3.029v5.872l-2.272,2.464l-12.122,11.551l0.568,2.654
	c3.79,0,7.579,0.566,11.554,1.515c1.515,0.38,3.029,0.758,4.544,1.323l-4.544-3.409h8.336l3.218-2.458h-11.362v-5.684h20.264
	l-6.252,8.331l-14.203,18.561l-5.681,7.578H91.855l-5.492-7.385l-14.396-18.754l-6.248-8.331h20.456v5.684H75.187l2.841,2.647h8.147
	l-4.358,3.22c1.515-0.565,3.029-0.943,4.547-1.323c3.789-0.948,7.575-1.515,11.551-1.515l0.38-2.463L86.363,117.61l-2.464-2.464
	v-5.872h2.844v5.872l1.515,1.516v-10.226H73.483l5.682,6.627H65.15v-9.47l-15.723-7.388v16.669h-8.142v2.271h16.857v1.516H41.286
	v4.546h16.857v1.515H41.286v4.735h16.857v1.517H41.286v16.286c5.112,5.49,10.796,10.23,16.669,13.26v-27.087l14.012,8.523v39.016
	c-9.848-7.009-18.181-14.017-24.811-20.835v20.835h-5.87v-27.462c-4.166-4.735-7.385-9.09-10.039-13.64
	c-1.895-3.029-3.409-6.056-4.544-8.896H3.977v-1.517h22.158c-0.757-1.703-1.326-3.221-1.706-4.735H3.977v-1.515h20.075
	c-0.566-1.517-0.946-3.029-1.138-4.546H3.977v-1.516h18.561c-0.38-2.651-0.566-5.303-0.566-7.575c0-8.713,3.596-16.854,9.276-23.107
	c3.412-3.786,7.578-6.818,12.313-9.09L33.145,40.147h0.377l12.312,31.819l5.872-8.523l-8.145-18.181l0.758-0.191l3.975,4.169
	l3.601-2.654l6.25,7.387l7.575-11.174c-9.281-12.502-21.212-17.234-29.736-24.053L33.711,39.77l-0.566-1.515l0.377-21.595
	l-2.274-2.271c-2.838-3.219-4.924-7.008-5.869-12.309h4.926c0.378,2.649,0.563,4.735,0.943,6.627c0.76,4.167,1.897,6.63,3.412,7.576
	l37.308,23.864l5.492,3.409c-1.89,1.326-3.787,3.029-5.492,5.109c-0.378,0.574-0.755,0.951-1.324,1.521l1.324,0.565l14.396,7.956
	l6.63,3.786v-9.278l-6.63-3.409l-4.738-2.464V34.086c-2.271,0.378-4.544,0.949-7.007,1.706l-2.651-0.948l-3.407-1.326h3.598
	c4.735-0.946,9.468-1.706,14.206-2.274c4.546-0.375,9.09-0.563,13.825-0.563c4.547,0,9.091,0.188,13.825,0.563
	c4.544,0.568,9.279,1.328,14.015,2.274h3.409l-3.221,1.138l-2.841,1.137c-2.27-0.757-4.544-1.328-6.818-1.706v13.257l-4.544,2.464
	l-6.818,3.409v9.278l6.818-3.786l14.203-7.956l0.948-0.565c-0.19-0.569-0.568-0.946-0.948-1.521c-1.892-2.08-3.596-3.783-5.49-5.109
	l5.49-3.409l37.124-23.864c1.323-0.758,2.46-2.841,3.218-6.25c0.38-2.086,0.757-4.737,0.948-7.953h5.112
	c-0.943,5.301-3.218,9.279-6.061,12.688c-0.758,0.568-1.323,1.135-1.895,1.706l0.191,21.78l-0.569,1.515l-2.08-21.023
	c-8.716,6.818-20.649,11.365-29.926,24.053l7.573,11.174l6.441-7.387l3.6,2.654l3.976-4.169l0.568,0.191l-7.955,18.181l5.684,8.523
	l12.311-31.819h0.378l-10.607,35.415c4.737,2.083,8.898,5.115,12.311,8.901c5.681,6.253,9.281,14.395,9.281,23.107
	c0,2.272-0.188,4.924-0.571,7.575h18.755v1.516H176.894z M37.12,128.975h-7.196c0.38,0.758,0.758,1.513,1.323,2.459
	c1.706,3.034,3.789,6.063,5.873,8.901V128.975z M37.12,122.723H27.081c0.757,1.515,1.328,3.221,2.086,4.735h7.953V122.723z
	 M37.12,116.662H25.188c0.378,1.517,0.946,3.029,1.515,4.546H37.12V116.662z M57.575,73.668
	c-10.797,1.138-20.267,6.63-26.328,14.585c-4.354,5.682-7.004,12.503-7.004,20.075c0,2.086,0.186,4.358,0.757,6.818h12.12V92.229
	h7.198L57.575,73.668z M100.188,43.748l8.336-4.549v-6.816c-2.844-0.188-5.495-0.383-8.336-0.383s-5.684,0.194-8.521,0.383v6.816
	L100.188,43.748z M82.196,90.146l-1.895-3.976c-2.274-0.757-4.544-1.515-6.44-2.651c0.57,0.19,1.325,0.38,1.896,0.38
	c2.649,0,4.922-1.706,6.247-4.169c-1.137-0.755-2.271-1.324-3.406-1.893c-0.571,1.326-1.706,2.083-2.841,2.083
	c-1.703,0-3.221-1.895-3.221-4.357v-0.188c-0.19-0.188-0.38-0.188-0.57-0.188c-1.135-0.38-2.081-0.569-3.219-0.758v1.135
	c0,2.654,0.946,4.927,2.655,6.441c-2.466-1.706-4.36-3.599-5.878-5.87l-3.973,3.786l10.036,10.226H82.196z M87.878,76.889
	l-1.515-0.943l-8.524-5.115l-5.682-7.387l-0.19-0.191l-6.441-4.164L58.9,71.587h2.084c3.786,0,7.384,0.566,10.982,1.513
	c5.306,1.517,10.229,3.98,14.396,7.39l-1.329,1.515c-0.374-0.378-0.755-0.758-1.323-0.949c0,2.464,0.758,5.493,2.274,9.091h2.081
	C89.581,86.738,89.395,82.384,87.878,76.889z M100.188,139.577c-1.895,0-3.786,0.191-5.684,0.571v3.976h-4.544v-3.032
	c-1.323,0.383-2.463,0.763-3.598,1.138c-0.378,0.191-0.758,0.191-0.946,0.38l0.946,1.326l6.818,9.09h13.825l7.007-9.09l0.946-1.326
	c-0.377-0.188-0.755-0.188-0.946-0.38c-1.325-0.375-2.463-0.755-3.598-1.138v2.844h-4.546v-3.787
	C103.975,139.769,102.083,139.577,100.188,139.577z M110.794,117.802c-1.135-4.55-7.196-5.684-10.605-5.684
	c-3.601,0-9.659,1.134-10.607,5.684l1.895,1.89c1.14-0.189,3.221-2.081,5.112-0.189c0.946,0.946,0.76,2.652-0.565,4.547l2.84,2.649
	l1.326-6.628v0.189l1.138,6.63l2.838-2.841c-1.135-1.895-1.323-3.601-0.378-4.547c1.895-1.892,3.979,0,5.112,0.189L110.794,117.802z
	 M138.447,79.92l-3.979-3.786c-1.517,2.271-3.409,4.164-5.681,5.87c1.515-1.515,2.463-3.787,2.463-6.441
	c0-0.377,0-0.757-0.191-1.323c-0.945,0.188-1.895,0.566-2.843,0.757c-0.188,0.189-0.377,0.189-0.757,0.189v0.377
	c0,2.463-1.326,4.357-3.029,4.357c-1.324,0-2.272-0.945-2.841-2.274c-1.135,0.571-2.272,1.329-3.409,1.895
	c1.326,2.652,3.598,4.358,6.25,4.358c0.568,0,1.323-0.189,1.895-0.38c-1.895,1.137-4.167,1.895-6.628,2.651l-1.705,3.976h10.416
	L138.447,79.92z M140.91,71.587l-6.441-12.499l-6.252,4.164l-0.188,0.191l-5.87,7.387l-8.145,5.115l-1.706,0.943
	c-1.514,5.495-1.514,9.85-0.188,13.257h1.895c1.704-3.407,2.461-6.437,2.461-9.279c-0.566,0.38-0.946,0.76-1.515,1.138l-0.946-1.515
	l-0.191-0.191h0.191c3.979-3.409,8.902-5.87,14.203-7.198c3.221-0.946,6.821-1.513,10.607-1.513H140.91z M169.885,128.975H162.5
	v11.552c2.27-2.841,4.164-5.873,6.059-8.902C168.938,130.676,169.507,129.732,169.885,128.975z M172.536,122.723H162.5v4.735h8.145
	C171.401,125.943,171.97,124.237,172.536,122.723z M174.434,116.662H162.5v4.546h10.603
	C173.676,119.691,174.054,118.179,174.434,116.662z M175.565,108.328c0-7.572-2.649-14.582-7.007-20.266
	c-6.059-7.765-15.529-13.257-26.134-14.395l13.257,18.561h6.818v22.918h12.306C175.38,112.687,175.565,110.414,175.565,108.328z
	 M114.205,120.831h20.453v-5.685h-15.531L114.205,120.831z M65.15,115.146v5.685h20.835l-4.926-5.685H65.15z"/>
</svg>
